<svg id="Artwork" xmlns="http://www.w3.org/2000/svg" xmlns:xlink="http://www.w3.org/1999/xlink" viewBox="0 0 685.02 229.75"><defs><linearGradient id="linear-gradient" x1="59.26" y1="114.75" x2="167.52" y2="114.75" gradientUnits="userSpaceOnUse"><stop offset="0" stop-color="#ff6f00"/><stop offset="1" stop-color="#ffa800"/></linearGradient><linearGradient id="linear-gradient-2" x1="58.53" y1="114.75" x2="166.79" y2="114.75" xlink:href="#linear-gradient"/><clipPath id="clip-path"><path class="cls-1" d="M155.46 88.44l-44.08-25.18V166.5l17.61-10.23v-29.05l13.3 7.7-.07-19.86-13.23-7.56V95.96l26.53 15.33-.06-22.85z"/></clipPath><clipPath id="clip-path-2"><path class="cls-1" d="M63.33 88.44l44.09-25.18V166.5l-17.61-10.23V95.96l-26.54 15.33.06-22.85z"/></clipPath><style>.cls-1{fill:none}.cls-6{fill:#425066}</style></defs><g clip-path="url(#clip-path)"><path fill="url(#linear-gradient)" d="M59.26 62.88h108.26v103.75H59.26z"/></g><g clip-path="url(#clip-path-2)"><path fill="url(#linear-gradient-2)" d="M58.53 62.88h108.26v103.75H58.53z"/></g><path class="cls-6" d="M235.43 95.25h-19.72v54.39H204.8V95.25h-19.55v-8.86h50.18z"/><path class="cls-6" d="M248.52 150.51q-10 0-16.27-6.32T226 127.36v-1.31a28.25 28.25 0 012.72-12.58 20.7 20.7 0 017.62-8.62 20.16 20.16 0 0111-3.08q9.6 0 14.84 6.12t5.24 17.34v4.25h-30.76a14.05 14.05 0 003.89 9.21 11.66 11.66 0 008.58 3.39 14.3 14.3 0 0011.87-5.86l5.69 5.43a19.08 19.08 0 01-7.54 6.54 23.59 23.59 0 01-10.63 2.32zm-1.26-40.27a8.88 8.88 0 00-7 3 15.76 15.76 0 00-3.41 8.47H257V121c-.23-3.53-1.17-6.21-2.83-8a8.8 8.8 0 00-6.91-2.76zM285.36 102.63l.31 5.44a16.88 16.88 0 0113.68-6.3q14.68 0 14.95 16.81v31.06h-10.56v-30.45c0-3-.64-5.19-1.93-6.63s-3.4-2.15-6.32-2.15a10.19 10.19 0 00-9.52 5.78v33.45h-10.56v-47zM348.55 136.87a4.78 4.78 0 00-2.32-4.3 24.76 24.76 0 00-7.71-2.61 39.6 39.6 0 01-9-2.87q-7.9-3.81-7.9-11.07a12.52 12.52 0 015.12-10.17q5.13-4.08 13-4.08 8.43 0 13.62 4.17a13.22 13.22 0 015.19 10.81H348a6.51 6.51 0 00-2.26-5.06 8.67 8.67 0 00-6-2 9.36 9.36 0 00-5.67 1.61 5.08 5.08 0 00-2.2 4.3 4.27 4.27 0 002 3.78c1.36.9 4.11 1.8 8.25 2.72a39 39 0 019.75 3.26 13.77 13.77 0 015.26 4.54 11.52 11.52 0 011.72 6.43 12.24 12.24 0 01-5.26 10.27c-3.5 2.62-8.1 3.93-13.77 3.93a24.33 24.33 0 01-10.3-2.08 16.92 16.92 0 01-7-5.74 13.56 13.56 0 01-2.52-7.86h10.26a7.39 7.39 0 002.82 5.75 11 11 0 006.91 2q4.17 0 6.34-1.59a4.91 4.91 0 002.22-4.14zM364.37 125.7a27.63 27.63 0 012.74-12.44 20 20 0 017.69-8.52 21.68 21.68 0 0111.38-3q9.51 0 15.45 6.12t6.4 16.25l.05 2.48a28 28 0 01-2.67 12.41 19.73 19.73 0 01-7.65 8.47 21.83 21.83 0 01-11.49 3q-10 0-15.93-6.62t-6-17.66zm10.56.92q0 7.24 3 11.36a10.46 10.46 0 0016.66-.07q3-4.17 3-12.21 0-7.12-3.06-11.29a10.33 10.33 0 00-16.53-.07q-3.08 4.11-3.07 12.28zM439.84 112.28a26.27 26.27 0 00-4.3-.35q-7.26 0-9.78 5.56v32.15H415.2v-47h10.08l.27 5.26q3.81-6.12 10.6-6.12a10 10 0 013.73.6zM484 122.84h-25.48v26.8h-11V86.39h40.19v8.86h-29.2v18.81H484zM504.84 149.64h-10.56V86.25h10.56zM512.57 125.7a27.63 27.63 0 012.74-12.44 20 20 0 017.69-8.52 21.7 21.7 0 0111.38-3q9.52 0 15.45 6.12t6.41 16.25v2.48a28 28 0 01-2.63 12.41 19.67 19.67 0 01-7.65 8.47 21.83 21.83 0 01-11.49 3q-9.94 0-15.92-6.62t-6-17.66zm10.56.92q0 7.24 3 11.36a9.74 9.74 0 008.34 4.1 9.64 9.64 0 008.32-4.17q3-4.17 3-12.21 0-7.12-3.07-11.29a10.33 10.33 0 00-16.53-.07q-3.06 4.11-3.06 12.28zM603.92 135.09l7.48-32.46h10.29l-12.81 47h-8.69l-10.08-32.28-9.91 32.28h-8.69l-12.86-47H569l7.6 32.11 9.65-32.11h7.95z"/></svg>